# Blender 4.0.2
# www.blender.org
mtllib selectionbox_axis.mtl
o selectionbox_single
v 1.062113 1.062113 3.535476
v 1.062113 1.297887 3.535476
v 1.062113 1.062113 -5.895478
v 1.062113 1.297886 -5.895478
v 1.297887 1.062113 3.535476
v 1.297887 1.297887 3.535476
v 1.297887 1.062113 -5.895478
v 1.297887 1.297886 -5.895478
v 1.061935 1.061934 3.542624
v 1.061935 1.298065 3.542623
v 1.061935 1.061934 -5.902621
v 1.061935 1.298065 -5.902621
v 1.298066 1.061934 3.542624
v 1.298066 1.298065 3.542623
v 1.298066 1.061934 -5.902621
v 1.298066 1.298065 -5.902621
v 1.062113 1.062113 3.535476
v 1.062113 1.297887 3.535476
v 1.062113 1.062113 -5.895478
v 1.062113 1.297886 -5.895478
v 1.297887 1.062113 3.535476
v 1.297887 1.297887 3.535476
v 1.297887 1.062113 -5.895478
v 1.297887 1.297886 -5.895478
v 1.061935 1.061934 3.542624
v 1.061935 1.298065 3.542623
v 1.061935 1.061934 -5.902621
v 1.061935 1.298065 -5.902621
v 1.298066 1.061934 3.542624
v 1.298066 1.298065 3.542623
v 1.298066 1.061934 -5.902621
v 1.298066 1.298065 -5.902621
v -3.535476 1.062113 -1.297887
v -3.535475 1.297887 -1.297886
v 5.895478 1.062113 -1.297887
v 5.895478 1.297886 -1.297887
v -3.535476 1.062113 -1.062113
v -3.535475 1.297887 -1.062113
v 5.895478 1.062113 -1.062113
v 5.895478 1.297886 -1.062113
v -3.542624 1.061934 -1.298065
v -3.542623 1.298065 -1.298065
v 5.902621 1.061934 -1.298066
v 5.902621 1.298065 -1.298066
v -3.542624 1.061934 -1.061934
v -3.542623 1.298065 -1.061934
v 5.902621 1.061934 -1.061935
v 5.902621 1.298065 -1.061935
v -3.535476 1.062113 -1.297887
v -3.535475 1.297887 -1.297886
v 5.895478 1.062113 -1.297887
v 5.895478 1.297886 -1.297887
v -3.535476 1.062113 -1.062113
v -3.535475 1.297887 -1.062113
v 5.895478 1.062113 -1.062113
v 5.895478 1.297886 -1.062113
v -3.542624 1.061934 -1.298065
v -3.542623 1.298065 -1.298065
v 5.902621 1.061934 -1.298066
v 5.902621 1.298065 -1.298066
v -3.542624 1.061934 -1.061934
v -3.542623 1.298065 -1.061934
v 5.902621 1.061934 -1.061935
v 5.902621 1.298065 -1.061935
v 1.297887 -3.535477 -1.297887
v 1.062113 -3.535477 -1.297887
v 1.297887 5.895477 -1.297886
v 1.062114 5.895477 -1.297887
v 1.297887 -3.535477 -1.062113
v 1.062113 -3.535477 -1.062113
v 1.297887 5.895477 -1.062112
v 1.062114 5.895477 -1.062113
v 1.298065 -3.542624 -1.298066
v 1.061934 -3.542623 -1.298066
v 1.298066 5.902620 -1.298065
v 1.061935 5.902620 -1.298065
v 1.298065 -3.542624 -1.061934
v 1.061934 -3.542623 -1.061934
v 1.298066 5.902620 -1.061934
v 1.061935 5.902620 -1.061934
v 1.297887 -3.535477 -1.297887
v 1.062113 -3.535477 -1.297887
v 1.297887 5.895477 -1.297886
v 1.062114 5.895477 -1.297887
v 1.297887 -3.535477 -1.062113
v 1.062113 -3.535477 -1.062113
v 1.297887 5.895477 -1.062112
v 1.062114 5.895477 -1.062113
v 1.298065 -3.542624 -1.298066
v 1.061934 -3.542623 -1.298066
v 1.298066 5.902620 -1.298065
v 1.061935 5.902620 -1.298065
v 1.298065 -3.542624 -1.061934
v 1.061934 -3.542623 -1.061934
v 1.298066 5.902620 -1.061934
v 1.061935 5.902620 -1.061934
vn 1.0000 -0.0000 -0.0000
vn -0.0000 -0.0000 1.0000
vn -1.0000 -0.0000 -0.0000
vn -0.0000 -0.0000 -1.0000
vn -0.0000 1.0000 -0.0000
vn -0.0000 -1.0000 -0.0000
vt 0.000000 0.000000
vt 0.000000 1.000000
vt 1.000000 1.000000
vt 1.000000 0.000000
s 0
f 1/1/1 3/2/1 4/3/1 2/4/1
f 3/1/2 7/2/2 8/3/2 4/4/2
f 7/1/3 5/2/3 6/3/3 8/4/3
f 5/1/4 1/2/4 2/3/4 6/4/4
f 3/1/5 1/2/5 5/3/5 7/4/5
f 8/1/6 6/2/6 2/3/6 4/4/6
f 9/1/3 10/4/3 12/3/3 11/2/3
f 11/1/4 12/4/4 16/3/4 15/2/4
f 15/1/1 16/4/1 14/3/1 13/2/1
f 13/1/2 14/4/2 10/3/2 9/2/2
f 11/1/6 15/4/6 13/3/6 9/2/6
f 16/1/5 12/4/5 10/3/5 14/2/5
f 17/1/1 19/2/1 20/3/1 18/4/1
f 19/1/2 23/2/2 24/3/2 20/4/2
f 23/1/3 21/2/3 22/3/3 24/4/3
f 21/1/4 17/2/4 18/3/4 22/4/4
f 19/1/5 17/2/5 21/3/5 23/4/5
f 24/1/6 22/2/6 18/3/6 20/4/6
f 25/1/3 26/4/3 28/3/3 27/2/3
f 27/1/4 28/4/4 32/3/4 31/2/4
f 31/1/1 32/4/1 30/3/1 29/2/1
f 29/1/2 30/4/2 26/3/2 25/2/2
f 27/1/6 31/4/6 29/3/6 25/2/6
f 32/1/5 28/4/5 26/3/5 30/2/5
f 33/1/2 35/2/2 36/3/2 34/4/2
f 35/1/3 39/2/3 40/3/3 36/4/3
f 39/1/4 37/2/4 38/3/4 40/4/4
f 37/1/1 33/2/1 34/3/1 38/4/1
f 35/1/5 33/2/5 37/3/5 39/4/5
f 40/1/6 38/2/6 34/3/6 36/4/6
f 41/1/4 42/4/4 44/3/4 43/2/4
f 43/1/1 44/4/1 48/3/1 47/2/1
f 47/1/2 48/4/2 46/3/2 45/2/2
f 45/1/3 46/4/3 42/3/3 41/2/3
f 43/1/6 47/4/6 45/3/6 41/2/6
f 48/1/5 44/4/5 42/3/5 46/2/5
f 49/1/2 51/2/2 52/3/2 50/4/2
f 51/1/3 55/2/3 56/3/3 52/4/3
f 55/1/4 53/2/4 54/3/4 56/4/4
f 53/1/1 49/2/1 50/3/1 54/4/1
f 51/1/5 49/2/5 53/3/5 55/4/5
f 56/1/6 54/2/6 50/3/6 52/4/6
f 57/1/4 58/4/4 60/3/4 59/2/4
f 59/1/1 60/4/1 64/3/1 63/2/1
f 63/1/2 64/4/2 62/3/2 61/2/2
f 61/1/3 62/4/3 58/3/3 57/2/3
f 59/1/6 63/4/6 61/3/6 57/2/6
f 64/1/5 60/4/5 58/3/5 62/2/5
f 65/1/2 67/2/2 68/3/2 66/4/2
f 67/1/6 71/2/6 72/3/6 68/4/6
f 71/1/4 69/2/4 70/3/4 72/4/4
f 69/1/5 65/2/5 66/3/5 70/4/5
f 67/1/3 65/2/3 69/3/3 71/4/3
f 72/1/1 70/2/1 66/3/1 68/4/1
f 73/1/4 74/4/4 76/3/4 75/2/4
f 75/1/5 76/4/5 80/3/5 79/2/5
f 79/1/2 80/4/2 78/3/2 77/2/2
f 77/1/6 78/4/6 74/3/6 73/2/6
f 75/1/1 79/4/1 77/3/1 73/2/1
f 80/1/3 76/4/3 74/3/3 78/2/3
f 81/1/2 83/2/2 84/3/2 82/4/2
f 83/1/6 87/2/6 88/3/6 84/4/6
f 87/1/4 85/2/4 86/3/4 88/4/4
f 85/1/5 81/2/5 82/3/5 86/4/5
f 83/1/3 81/2/3 85/3/3 87/4/3
f 88/1/1 86/2/1 82/3/1 84/4/1
f 89/1/4 90/4/4 92/3/4 91/2/4
f 91/1/5 92/4/5 96/3/5 95/2/5
f 95/1/2 96/4/2 94/3/2 93/2/2
f 93/1/6 94/4/6 90/3/6 89/2/6
f 91/1/1 95/4/1 93/3/1 89/2/1
f 96/1/3 92/4/3 90/3/3 94/2/3
