# Blender 4.0.2
# www.blender.org
g Cube.001_Cube.002
v 0.001131 0.001131 -0.001131
v 0.001131 2.358870 -0.001132
v 0.001131 0.001130 -2.358870
v 0.001131 2.358868 -2.358870
v 2.358870 0.001131 -0.001131
v 2.358870 2.358870 -0.001132
v 2.358870 0.001130 -2.358870
v 2.358870 2.358868 -2.358870
v -0.000656 -0.000656 0.000656
v -0.000656 2.360656 0.000654
v -0.000656 -0.000656 -2.360656
v -0.000656 2.360655 -2.360656
v 2.360656 -0.000656 0.000656
v 2.360656 2.360656 0.000654
v 2.360656 -0.000656 -2.360656
v 2.360656 2.360655 -2.360656
v 0.001131 0.001131 -0.001131
v 0.001131 2.358870 -0.001132
v 0.001131 0.001130 -2.358870
v 0.001131 2.358868 -2.358870
v 2.358870 0.001131 -0.001131
v 2.358870 2.358870 -0.001132
v 2.358870 0.001130 -2.358870
v 2.358870 2.358868 -2.358870
v -0.000656 -0.000656 0.000656
v -0.000656 2.360656 0.000654
v -0.000656 -0.000656 -2.360656
v -0.000656 2.360655 -2.360656
v 2.360656 -0.000656 0.000656
v 2.360656 2.360656 0.000654
v 2.360656 -0.000656 -2.360656
v 2.360656 2.360655 -2.360656
vn 1.0000 -0.0000 -0.0000
vn -0.0000 -0.0000 1.0000
vn -1.0000 -0.0000 -0.0000
vn -0.0000 -0.0000 -1.0000
vn -0.0000 1.0000 -0.0000
vn -0.0000 -1.0000 -0.0000
vt 0.000000 0.000000
vt 0.000000 1.000000
vt 1.000000 1.000000
vt 1.000000 0.000000
s 0
f 1/1/1 3/2/1 4/3/1 2/4/1
f 3/1/2 7/2/2 8/3/2 4/4/2
f 7/1/3 5/2/3 6/3/3 8/4/3
f 5/1/4 1/2/4 2/3/4 6/4/4
f 3/1/5 1/2/5 5/3/5 7/4/5
f 8/1/6 6/2/6 2/3/6 4/4/6
f 9/1/3 10/4/3 12/3/3 11/2/3
f 11/1/4 12/4/4 16/3/4 15/2/4
f 15/1/1 16/4/1 14/3/1 13/2/1
f 13/1/2 14/4/2 10/3/2 9/2/2
f 11/1/6 15/4/6 13/3/6 9/2/6
f 16/1/5 12/4/5 10/3/5 14/2/5
f 17/1/1 19/2/1 20/3/1 18/4/1
f 19/1/2 23/2/2 24/3/2 20/4/2
f 23/1/3 21/2/3 22/3/3 24/4/3
f 21/1/4 17/2/4 18/3/4 22/4/4
f 19/1/5 17/2/5 21/3/5 23/4/5
f 24/1/6 22/2/6 18/3/6 20/4/6
f 25/1/3 26/4/3 28/3/3 27/2/3
f 27/1/4 28/4/4 32/3/4 31/2/4
f 31/1/1 32/4/1 30/3/1 29/2/1
f 29/1/2 30/4/2 26/3/2 25/2/2
f 27/1/6 31/4/6 29/3/6 25/2/6
f 32/1/5 28/4/5 26/3/5 30/2/5
g Cube.002_Cube.003
v -2.356607 -2.356606 2.356608
v -2.356607 4.716611 2.356605
v -2.356607 -2.356610 -4.716609
v -2.356607 4.716604 -4.716609
v 4.716609 -2.356606 2.356608
v 4.716609 4.716611 2.356605
v 4.716609 -2.356610 -4.716609
v 4.716609 4.716604 -4.716609
v -2.361969 -2.361967 2.361970
v -2.361969 4.721969 2.361963
v -2.361969 -2.361968 -4.721967
v -2.361969 4.721965 -4.721967
v 4.721968 -2.361967 2.361970
v 4.721968 4.721969 2.361963
v 4.721968 -2.361968 -4.721967
v 4.721968 4.721965 -4.721967
v -2.356607 -2.356606 2.356608
v -2.356607 4.716611 2.356605
v -2.356607 -2.356610 -4.716609
v -2.356607 4.716604 -4.716609
v 4.716609 -2.356606 2.356608
v 4.716609 4.716611 2.356605
v 4.716609 -2.356610 -4.716609
v 4.716609 4.716604 -4.716609
v -2.361969 -2.361967 2.361970
v -2.361969 4.721969 2.361963
v -2.361969 -2.361968 -4.721967
v -2.361969 4.721965 -4.721967
v 4.721968 -2.361967 2.361970
v 4.721968 4.721969 2.361963
v 4.721968 -2.361968 -4.721967
v 4.721968 4.721965 -4.721967
vn 1.0000 -0.0000 -0.0000
vn -0.0000 -0.0000 1.0000
vn -1.0000 -0.0000 -0.0000
vn -0.0000 -0.0000 -1.0000
vn -0.0000 1.0000 -0.0000
vn -0.0000 -1.0000 -0.0000
vt 0.000000 0.000000
vt 0.000000 1.000000
vt 1.000000 1.000000
vt 1.000000 0.000000
s 0
f 33/5/7 35/6/7 36/7/7 34/8/7
f 35/5/8 39/6/8 40/7/8 36/8/8
f 39/5/9 37/6/9 38/7/9 40/8/9
f 37/5/10 33/6/10 34/7/10 38/8/10
f 35/5/11 33/6/11 37/7/11 39/8/11
f 40/5/12 38/6/12 34/7/12 36/8/12
f 41/5/9 42/8/9 44/7/9 43/6/9
f 43/5/10 44/8/10 48/7/10 47/6/10
f 47/5/7 48/8/7 46/7/7 45/6/7
f 45/5/8 46/8/8 42/7/8 41/6/8
f 43/5/12 47/8/12 45/7/12 41/6/12
f 48/5/11 44/8/11 42/7/11 46/6/11
f 49/5/7 51/6/7 52/7/7 50/8/7
f 51/5/8 55/6/8 56/7/8 52/8/8
f 55/5/9 53/6/9 54/7/9 56/8/9
f 53/5/10 49/6/10 50/7/10 54/8/10
f 51/5/11 49/6/11 53/7/11 55/8/11
f 56/5/12 54/6/12 50/7/12 52/8/12
f 57/5/9 58/8/9 60/7/9 59/6/9
f 59/5/10 60/8/10 64/7/10 63/6/10
f 63/5/7 64/8/7 62/7/7 61/6/7
f 61/5/8 62/8/8 58/7/8 57/6/8
f 59/5/12 63/8/12 61/7/12 57/6/12
f 64/5/11 60/8/11 58/7/11 62/6/11
