# Blender 4.0.2
# www.blender.org
o Cube.001
v 0.130656 -0.130000 -2.360656
v 0.130656 -0.130000 0.000654
v -0.130656 -0.130000 0.000656
v -0.130656 0.130656 0.000654
v -0.130656 -0.130000 -2.360656
v -0.130656 0.130655 -2.360656
v 0.130656 0.130656 0.000654
v 0.130656 0.130655 -2.360656
v 0.130510 -0.129855 -2.359338
v 0.130510 -0.129855 -0.000664
v -0.130510 -0.129855 -0.000663
v -0.130510 0.130510 -0.000664
v -0.130510 -0.129855 -2.359337
v -0.130510 0.130509 -2.359338
v 0.130510 0.130510 -0.000664
v 0.130510 0.130509 -2.359338
vn -1.0000 -0.0000 -0.0000
vn 1.0000 -0.0000 -0.0000
vn -0.0000 -1.0000 -0.0000
vn -0.0000 1.0000 -0.0000
vn -0.0000 -0.0000 -1.0000
vn -0.0000 -0.0000 1.0000
vt 0.059862 0.002576
vt 0.059862 0.997310
vt 0.003124 0.002576
vt 0.003124 0.997310
vt 0.003124 0.997310
vt 0.003124 0.002576
s 0
f 7/1/1 8/2/1 1/2/1 2/1/1
f 3/3/2 5/4/2 6/5/2 4/6/2
f 8/2/3 7/1/3 4/6/3 6/5/3
f 5/4/4 3/3/4 2/1/4 1/2/4
f 4/6/5 7/1/5 2/1/5 3/3/5
f 5/4/6 1/2/6 8/2/6 6/5/6
f 15/1/2 10/1/2 9/2/2 16/2/2
f 11/3/1 12/6/1 14/5/1 13/4/1
f 16/2/4 14/5/4 12/6/4 15/1/4
f 13/4/3 9/2/3 10/1/3 11/3/3
f 12/6/6 11/3/6 10/1/6 15/1/6
f 13/4/5 14/5/5 16/2/5 9/2/5
